<?xml version="1.0" standalone="no"?>
<!DOCTYPE svg PUBLIC "-//W3C//DTD SVG 20010904//EN"
 "http://www.w3.org/TR/2001/REC-SVG-20010904/DTD/svg10.dtd">
<svg version="1.0" xmlns="http://www.w3.org/2000/svg"
 width="318.000000pt" height="318.000000pt" viewBox="0 0 318.000000 318.000000"
 preserveAspectRatio="xMidYMid meet">
<metadata>
Created by potrace 1.14, written by Peter Selinger 2001-2017
</metadata>
<g transform="translate(0.000000,318.000000) scale(0.100000,-0.100000)"
fill="#000000" stroke="none">
<path d="M0 2282 l0 -899 23 -12 c33 -18 71 0 87 41 22 55 37 67 82 63 41 -2
61 -21 64 -57 2 -31 13 -48 28 -42 8 3 17 1 21 -5 3 -6 16 -11 27 -11 12 0 18
3 14 7 -3 4 6 12 21 19 l28 12 -29 1 -28 1 23 20 c23 19 23 21 6 34 -14 11
-16 19 -9 33 9 18 9 49 -1 90 -3 13 0 29 6 36 7 7 18 23 25 35 11 19 10 22 -5
22 -14 0 -15 2 -4 9 11 7 11 9 0 14 -9 3 -9 6 -2 6 8 1 9 10 2 33 -5 20 -5 36
0 41 5 5 6 19 2 31 -11 29 -3 154 12 188 6 15 19 28 27 29 10 0 11 2 2 6 -8 3
-4 14 15 33 49 51 67 74 69 88 2 8 9 21 17 30 10 11 12 24 7 37 -8 19 -11 18
-14 -4 -3 -21 -16 -22 -45 -5 -40 24 -42 73 -6 127 28 40 31 42 69 27 24 -9
26 -8 26 20 0 25 4 30 25 30 25 0 33 -14 16 -25 -19 -11 -42 -68 -32 -78 15
-15 37 -1 52 32 10 23 20 31 40 31 14 0 29 3 33 7 14 15 120 42 131 34 5 -5
21 -11 35 -13 21 -3 18 -6 -20 -17 -69 -20 -120 -45 -120 -58 0 -7 -5 -13 -10
-13 -14 0 -100 -91 -100 -105 0 -5 -9 -21 -20 -35 -11 -14 -20 -33 -20 -42 0
-10 -4 -18 -9 -18 -5 0 -17 -21 -26 -47 -9 -27 -21 -56 -26 -65 -5 -10 -9 -26
-9 -36 0 -10 -3 -22 -7 -25 -7 -8 -10 -27 -18 -157 -9 -124 -10 -134 -19 -149
-4 -7 -5 -15 -2 -18 3 -4 -1 -15 -11 -25 -15 -17 -15 -18 1 -18 14 0 15 -4 6
-20 -8 -16 -8 -20 3 -20 19 0 27 -45 16 -84 -5 -17 -6 -38 -4 -47 3 -10 1 -20
-5 -24 -6 -3 -8 -10 -5 -15 3 -5 0 -12 -6 -16 -8 -5 -7 -9 2 -15 10 -6 10 -13
1 -33 -10 -23 -9 -26 8 -26 11 0 20 -3 20 -7 0 -5 11 -9 25 -9 14 -1 41 -17
60 -35 27 -27 31 -36 22 -48 -10 -12 -4 -13 43 -9 44 4 74 -1 147 -24 l92 -30
-2 -79 c-3 -81 -17 -124 -17 -51 0 39 -2 42 -37 51 -103 27 -109 23 -18 -11
36 -14 41 -18 18 -14 -18 3 -35 1 -38 -5 -4 -5 -14 -7 -24 -4 -9 3 -33 -3 -53
-12 l-36 -18 45 -2 c52 -2 61 -7 42 -26 -19 -18 -49 -29 -49 -17 0 15 -37 12
-71 -6 -17 -8 -33 -13 -35 -11 -3 2 9 10 26 17 16 7 27 16 24 21 -3 5 3 6 13
3 14 -5 15 -4 4 4 -11 8 -25 6 -50 -5 -59 -25 -61 -25 -61 -20 0 4 16 14 35
23 32 15 37 24 35 62 -1 4 -11 6 -23 4 -16 -2 -18 0 -8 6 20 14 1 21 -67 23
-37 1 -67 -2 -74 -9 -7 -7 -21 -12 -33 -11 -20 0 -20 0 0 9 36 16 1 10 -47 -7
-27 -9 -48 -21 -48 -25 0 -4 -7 -8 -15 -8 -24 0 -17 19 10 26 14 3 25 11 25
16 0 6 -7 7 -16 4 -8 -3 -12 -2 -9 4 3 6 13 10 21 10 8 0 14 5 14 10 0 6 -8
10 -17 10 -15 0 -16 2 -3 10 13 9 13 10 0 10 -31 0 -52 108 -30 150 8 15 5 23
-18 40 -22 18 -36 21 -74 16 -45 -5 -48 -4 -48 18 0 32 -24 39 -54 15 -15 -12
-27 -15 -31 -9 -3 5 -22 10 -41 10 l-34 0 0 -666 0 -665 275 2 c197 1 277 5
284 13 6 8 30 11 61 9 34 -3 64 2 94 16 25 11 71 25 103 31 74 16 93 26 93 51
0 16 6 20 28 19 41 -3 49 0 29 11 -16 9 -16 11 -1 26 15 15 15 18 -2 30 -16
12 -17 13 -1 13 15 0 16 4 7 20 -8 15 -8 21 2 24 40 13 42 14 21 15 -19 1 -20
4 -10 26 7 14 16 25 20 25 5 0 5 5 2 10 -3 6 -1 10 5 10 7 0 10 6 7 13 -2 6 3
17 12 24 14 11 14 12 -3 13 -15 0 -16 3 -6 15 7 8 10 15 6 15 -4 0 1 11 9 24
16 23 15 24 -4 19 -25 -6 -27 3 -6 23 19 19 19 38 1 31 -11 -4 -14 2 -14 24 1
16 5 29 9 29 4 0 10 8 12 18 4 16 5 16 6 0 0 -10 8 -18 16 -18 8 0 27 -19 42
-43 15 -23 35 -52 46 -63 18 -22 18 -22 -17 -59 -20 -20 -36 -41 -36 -45 0 -5
17 -12 37 -16 21 -3 43 -13 50 -21 7 -9 19 -13 27 -10 30 12 22 -28 -13 -65
-27 -29 -32 -41 -23 -50 9 -9 8 -16 -4 -29 -8 -9 -17 -30 -19 -45 -2 -16 -4
-31 -4 -34 -1 -3 -6 2 -12 10 -8 12 -9 10 -4 -7 5 -18 1 -25 -20 -33 -22 -8
-24 -13 -15 -30 6 -11 19 -24 30 -30 29 -15 327 -13 334 3 5 9 7 9 12 0 8 -19
265 -18 259 0 -3 7 13 23 35 37 22 14 40 29 40 34 0 13 32 35 52 36 9 0 23 9
31 20 8 11 17 17 20 13 4 -3 7 -1 7 6 0 7 5 9 10 6 6 -3 10 -1 10 4 0 6 6 11
13 11 7 0 42 20 77 45 35 25 72 47 82 51 21 6 24 30 6 38 -7 3 -3 3 10 0 12
-3 22 -1 22 3 0 12 70 37 78 29 3 -4 -4 -9 -16 -13 -12 -3 -22 -9 -22 -14 0
-5 -6 -9 -12 -9 -7 0 -21 -14 -30 -30 -9 -17 -29 -35 -43 -42 -14 -6 -25 -17
-25 -23 0 -7 -20 -29 -45 -50 -42 -37 -73 -54 -208 -121 -31 -15 -57 -32 -57
-36 0 -4 47 -8 105 -8 93 0 108 2 130 22 13 11 22 24 20 28 -3 4 11 23 30 41
19 19 35 39 35 45 0 13 68 84 79 84 5 0 16 9 26 20 10 11 24 20 32 20 7 0 33
18 57 40 24 22 48 40 54 40 5 0 12 7 16 15 3 8 12 15 21 15 8 0 15 6 15 13 0
13 28 31 140 88 41 22 70 39 63 39 -14 0 -207 -88 -278 -127 -50 -27 -67 -35
-70 -31 -11 10 21 33 135 95 25 14 50 32 56 39 6 8 19 12 28 8 9 -4 24 0 34 8
9 8 31 21 49 29 17 7 30 16 28 20 -8 11 110 60 129 53 8 -3 33 4 57 15 23 12
50 21 59 21 24 0 229 58 267 75 17 8 36 15 42 15 6 0 11 5 11 11 0 7 -10 9
-27 4 -22 -5 -25 -4 -16 5 6 7 26 14 45 15 18 2 36 3 41 4 4 1 7 16 7 34 l0
33 -72 -18 c-40 -10 -97 -20 -127 -22 -30 -3 -57 -9 -60 -14 -3 -5 -35 -20
-71 -32 -36 -13 -70 -29 -76 -36 -6 -7 -20 -11 -33 -7 -21 5 -20 7 13 29 19
13 38 24 41 24 4 0 21 6 38 14 66 28 96 38 105 32 9 -6 80 12 147 37 31 12 36
13 73 15 12 1 22 7 22 13 0 8 -15 10 -47 6 -47 -5 -47 -5 -18 8 17 8 38 14 48
15 16 0 17 38 17 654 0 640 0 655 -19 661 -11 3 -18 12 -15 19 3 8 -5 16 -20
20 -17 4 -26 13 -26 26 0 13 -7 20 -20 20 -11 0 -20 7 -20 15 0 8 -8 15 -18
15 -24 0 -59 26 -49 36 4 5 16 3 26 -3 19 -12 31 -8 31 9 0 5 -5 6 -10 3 -7
-4 -7 2 -1 17 5 13 14 41 20 63 7 26 31 61 66 98 l55 57 0 285 0 285 -420 0
-421 0 23 -30 c12 -16 25 -30 30 -30 4 0 8 -4 8 -9 0 -6 11 -22 25 -37 l24
-26 -30 -44 c-32 -47 -63 -69 -81 -58 -7 4 -8 3 -4 -4 7 -12 -8 -48 -28 -67
-17 -16 -58 -18 -67 -4 -6 11 -19 9 -61 -10 -57 -26 -69 -27 -135 -16 -28 5
-43 13 -43 22 0 11 -7 14 -25 11 -13 -3 -26 -1 -28 5 -2 6 -30 11 -63 13 -189
10 -292 16 -314 18 -14 2 -33 4 -44 5 -11 1 -16 6 -13 15 3 8 -1 20 -9 26 -8
7 -14 23 -14 36 0 19 5 24 25 24 18 0 25 5 25 20 0 11 3 20 8 20 12 0 32 53
32 87 l0 33 -249 0 c-245 0 -250 0 -246 -20 2 -11 6 -24 10 -29 9 -15 -14 -63
-43 -88 -30 -26 -57 -30 -69 -10 -4 8 -16 16 -25 20 -19 7 -25 47 -8 47 11 0
69 60 70 73 0 4 -56 7 -125 7 -73 0 -125 -4 -125 -10 0 -5 12 -20 26 -33 23
-22 25 -30 19 -66 -8 -47 -17 -56 -42 -42 -10 5 -40 20 -68 33 -27 13 -51 30
-53 37 -1 7 6 28 17 47 l20 34 -344 0 -345 0 0 -898z m850 803 c0 -8 -4 -15
-10 -15 -5 0 -10 7 -10 15 0 8 5 15 10 15 6 0 10 -7 10 -15z m-248 -50 c0 -5
-5 -11 -11 -13 -6 -2 -11 4 -11 13 0 9 5 15 11 13 6 -2 11 -8 11 -13z m-78
-17 c-4 -13 -11 -34 -17 -48 -5 -14 -12 -33 -14 -43 -2 -10 -8 -28 -15 -40 -7
-12 -13 -26 -15 -32 -1 -5 -9 -30 -18 -54 -16 -44 -17 -84 -2 -79 10 4 39 -53
33 -68 -2 -6 0 -16 6 -22 7 -7 -1 -12 -23 -17 -22 -5 -34 -4 -37 4 -7 22 -20
10 -26 -26 -9 -56 -17 -64 -51 -54 -17 5 -25 10 -19 10 5 1 18 18 27 39 17 38
17 40 -8 86 -25 47 -34 106 -15 106 6 0 10 6 10 14 0 8 11 14 26 14 37 0 47
15 46 69 0 26 3 59 8 73 5 14 11 38 15 54 4 21 10 27 24 23 10 -2 25 -1 32 4
26 16 41 10 33 -13z m1989 15 c4 -3 35 -8 70 -10 35 -3 68 -11 77 -19 12 -12
18 -10 40 11 23 22 30 24 77 16 77 -12 100 -31 108 -90 4 -27 4 -73 0 -103 -6
-50 -5 -55 18 -67 18 -9 30 -10 43 -3 14 8 24 5 46 -13 15 -13 32 -25 37 -27
6 -2 8 -18 4 -40 -4 -29 -10 -38 -26 -38 -11 0 -35 -11 -52 -25 -25 -19 -31
-30 -28 -50 5 -25 -2 -29 -44 -28 -7 1 -13 -5 -13 -12 0 -6 -13 -12 -30 -13
-20 0 -30 4 -30 14 0 8 -5 12 -10 9 -6 -3 -24 3 -40 15 -42 30 -84 34 -106 9
-23 -26 -59 -24 -82 5 -20 26 -36 23 -46 -10 -3 -12 -24 -29 -46 -39 -36 -16
-53 -35 -32 -35 12 0 52 -35 52 -46 0 -5 15 -26 34 -46 35 -38 37 -51 8 -41
-14 4 -15 3 -2 -6 8 -5 11 -14 6 -18 -4 -4 -16 3 -27 16 -11 13 -31 24 -47 25
-15 1 -42 10 -59 19 -30 16 -33 16 -33 1 0 -9 -9 -29 -20 -44 -21 -30 -22 -49
-5 -63 6 -5 0 -5 -12 -2 -30 8 -30 -11 -1 -21 13 -4 43 -26 68 -50 25 -24 53
-44 63 -44 22 0 22 -16 1 -28 -15 -8 -14 -13 9 -44 15 -19 24 -38 19 -43 -4
-4 1 -5 10 -2 10 3 20 2 23 -3 4 -6 0 -10 -7 -10 -9 0 -10 -3 -2 -8 6 -4 14
-17 18 -30 6 -17 13 -21 30 -16 16 4 32 -2 51 -19 26 -22 27 -24 7 -22 -12 1
-25 4 -28 8 -11 11 -42 8 -50 -5 -4 -7 -3 -8 4 -4 8 5 11 -1 9 -16 -1 -18 4
-23 27 -28 17 -3 29 -8 28 -13 -1 -4 4 -20 12 -36 9 -16 12 -31 9 -34 -3 -4 2
-9 11 -13 20 -8 21 -24 1 -24 -18 0 -19 -12 -3 -28 9 -9 6 -12 -15 -12 -26 0
-27 -1 -13 -22 8 -13 14 -41 13 -62 -1 -23 4 -41 11 -44 7 -2 12 -10 12 -17 0
-8 8 -19 18 -25 16 -11 16 -11 0 -6 -22 7 -24 -18 -4 -36 12 -11 12 -15 -1
-30 -13 -14 -13 -20 2 -48 15 -30 15 -33 -2 -45 -17 -13 -17 -14 2 -35 18 -20
18 -20 0 -14 -12 5 -16 4 -12 -3 4 -6 1 -13 -5 -16 -10 -3 -10 -7 1 -20 12
-16 9 -21 -12 -18 -4 0 -6 -2 -6 -6 4 -25 -3 -42 -15 -37 -10 4 -12 -3 -9 -31
2 -23 0 -34 -7 -30 -6 3 -7 0 -4 -9 5 -12 0 -16 -20 -16 -16 0 -24 -5 -22 -12
16 -52 17 -70 1 -64 -13 4 -14 2 -5 -14 8 -16 8 -20 -4 -20 -8 0 -17 -6 -20
-12 -3 -7 -4 -4 -1 7 4 15 -7 32 -37 60 -23 22 -39 34 -34 28 4 -7 3 -13 -3
-13 -5 0 -12 4 -15 8 -3 4 -21 6 -42 4 -24 -3 -32 -7 -23 -13 7 -4 -5 -5 -27
-3 -26 4 -66 -3 -124 -21 -124 -40 -206 -84 -127 -69 186 35 195 35 327 -2 25
-7 25 -7 6 14 -11 12 -16 22 -11 22 4 0 0 11 -9 25 -18 28 -11 32 18 10 23
-17 46 -20 46 -5 0 5 -6 7 -13 4 -8 -3 -20 2 -27 11 -15 18 -11 19 24 5 16 -6
26 -17 26 -29 0 -11 4 -22 9 -25 5 -3 7 -19 5 -35 -3 -24 3 -36 29 -57 32 -27
32 -27 2 -8 -71 43 -107 56 -116 42 -11 -17 -11 -31 0 -24 4 3 7 -6 5 -19 -1
-14 2 -27 7 -31 5 -3 9 -10 9 -15 0 -6 -7 -3 -16 5 -21 22 -27 20 -14 -5 7
-11 9 -23 6 -26 -3 -3 -15 16 -26 42 -21 49 -20 66 2 47 10 -8 13 -4 13 19 1
26 -4 31 -39 40 -52 14 -181 8 -198 -9 -11 -11 -9 -12 6 -6 12 5 17 4 13 -3
-6 -9 36 -24 59 -22 4 0 10 -5 15 -12 4 -8 11 -10 15 -6 4 3 1 14 -7 23 -13
16 -12 16 8 6 28 -15 36 -15 27 1 -4 6 11 -8 34 -33 47 -50 50 -60 24 -83 -15
-13 -21 -14 -31 -4 -11 10 -11 8 -1 -12 l12 -24 22 25 c11 13 17 19 13 12 -4
-7 -3 -15 3 -19 5 -3 10 -11 10 -17 0 -7 -5 -6 -14 1 -22 19 -29 -5 -10 -36
l16 -28 -22 28 c-12 15 -26 25 -31 21 -5 -3 -12 2 -15 10 -3 9 -10 16 -15 16
-6 0 -4 -10 2 -22 12 -23 12 -23 -10 -4 -27 25 -33 18 -21 -24 5 -19 8 -36 5
-38 -3 -3 -8 10 -12 28 -5 29 -7 31 -14 15 -7 -20 -8 -20 -9 0 -2 11 -2 24 -1
28 1 4 -7 3 -18 -2 -10 -6 -22 -7 -26 -3 -5 4 -5 1 -1 -6 4 -7 12 -9 18 -6 7
5 8 2 2 -7 -11 -18 -14 -39 -6 -37 14 3 172 -68 172 -77 0 -3 -17 3 -37 14
-21 10 -49 22 -62 26 l-24 7 28 -38 c25 -36 24 -35 -16 8 -34 36 -53 48 -81
51 -21 3 -36 2 -34 -2 3 -4 1 -13 -4 -21 -5 -8 -3 -26 6 -44 14 -28 14 -29 -1
-12 -8 11 -15 23 -15 28 0 4 -6 8 -13 8 -6 0 -18 14 -25 30 -8 17 -21 30 -29
30 -14 0 -14 -2 -2 -17 14 -18 39 -60 39 -66 0 -2 -7 -4 -15 -4 -8 0 -13 2
-10 5 2 2 -5 22 -16 43 l-19 39 -69 0 c-48 0 -72 -4 -81 -14 -10 -13 0 -21 59
-50 82 -40 137 -80 145 -104 5 -14 4 -14 -8 2 -8 10 -19 15 -24 12 -5 -3 -16
1 -23 10 -24 29 -93 71 -129 79 -19 4 -40 12 -47 17 -7 6 -14 5 -18 -2 -3 -5
-1 -10 4 -10 7 0 7 -7 -1 -20 -11 -17 -8 -24 23 -57 56 -59 111 -148 80 -128
-5 3 -11 0 -14 -7 -2 -7 -2 -2 0 10 2 15 0 21 -6 17 -7 -4 -8 1 -4 11 5 13 3
15 -7 9 -9 -5 -11 -4 -6 3 4 7 3 12 -2 12 -5 0 -15 11 -22 25 -8 15 -20 23
-27 20 -8 -2 -11 -1 -8 4 3 5 -4 16 -15 24 -11 7 -18 16 -15 19 3 2 -2 5 -10
5 -8 0 -15 -2 -15 -5 0 -10 54 -67 62 -64 4 1 7 -1 6 -5 -1 -5 10 -31 25 -60
30 -57 31 -63 18 -63 -5 0 -12 12 -15 26 -4 14 -17 42 -30 62 -29 45 -96 111
-96 94 0 -7 -8 -12 -19 -12 -10 0 -25 -9 -32 -21 -13 -19 -14 -19 -16 11 -1
18 2 28 7 25 6 -4 10 -1 10 4 0 6 3 10 8 9 12 -2 59 20 67 31 8 14 -1 14 -26
0 -11 -6 -30 -13 -42 -15 -12 -3 -26 -6 -32 -7 -5 -2 -16 -6 -23 -11 -7 -4
-19 -3 -26 4 -11 8 -15 8 -19 -2 -4 -10 -7 -10 -18 -1 -18 18 -10 22 56 33 58
9 180 72 189 97 6 15 -7 17 -32 4 -9 -5 -38 -19 -64 -31 -27 -12 -48 -25 -48
-28 0 -4 -10 -8 -22 -9 -13 -1 -43 -5 -68 -8 -35 -6 -49 -4 -59 8 -10 13 -9
17 8 27 13 6 21 21 21 37 0 14 10 34 22 44 11 11 18 19 14 19 -4 0 2 14 15 31
16 23 20 39 16 65 -4 25 -2 34 8 34 8 0 16 -4 20 -10 3 -5 12 -7 20 -3 18 6
21 -47 4 -79 -8 -16 -8 -22 2 -28 15 -10 -41 -70 -65 -70 -9 0 -16 -6 -16 -14
0 -17 42 -29 51 -15 4 7 9 4 13 -6 5 -14 9 -15 21 -5 8 7 15 19 15 27 0 16 38
52 56 53 7 0 15 12 18 26 7 25 7 25 32 9 14 -9 32 -14 40 -11 19 7 18 36 -2
36 -8 0 -12 5 -9 10 4 6 11 8 16 5 5 -4 13 4 18 17 7 17 5 26 -7 36 -13 10
-14 15 -4 21 7 4 13 25 14 47 1 21 3 34 5 28 4 -13 53 -6 53 7 0 5 -10 9 -22
9 -26 0 -75 65 -58 75 6 3 10 -1 10 -9 0 -9 3 -16 8 -16 4 0 17 -3 30 -6 31
-9 25 21 -11 60 -15 16 -27 34 -28 40 -2 32 -9 49 -26 62 -10 7 -13 14 -8 14
6 0 4 4 -3 9 -7 4 -15 24 -18 45 -4 34 -3 36 15 24 11 -7 25 -22 32 -35 12
-23 49 -32 49 -13 0 6 -4 10 -9 10 -5 0 -11 6 -14 14 -4 10 0 12 15 8 16 -4
19 -2 13 8 -6 10 -3 12 13 8 12 -4 25 -2 28 3 3 6 13 7 23 4 11 -3 34 13 72
52 63 67 68 83 56 202 -4 36 -3 69 3 75 19 24 9 194 -13 208 -9 6 -8 8 2 8 11
0 11 3 0 16 -11 14 -10 16 6 14 51 -6 66 13 69 80 1 18 -40 97 -64 123 -23 24
-31 55 -17 64 5 3 21 -6 33 -20 13 -15 28 -27 34 -27 5 0 10 -6 10 -14 0 -8
10 -22 22 -30 12 -9 20 -16 16 -16 -3 0 14 -20 38 -45 39 -39 47 -43 64 -32
24 14 26 35 5 43 -8 4 -13 10 -10 14 3 4 -2 10 -10 14 -8 3 -15 9 -15 13 0 15
-114 128 -142 143 -16 7 -28 19 -28 27 0 7 -14 26 -31 43 -22 21 -30 36 -26
50 8 31 -22 52 -115 84 -46 15 -89 32 -95 38 -10 8 -13 6 -13 -6 0 -10 5 -14
10 -11 6 3 10 -1 10 -9 0 -9 5 -15 11 -14 7 2 12 -15 14 -42 2 -25 1 -35 -2
-23 -3 14 -9 20 -19 16 -8 -3 -14 1 -14 11 0 9 -3 15 -7 14 -12 -4 -83 42 -83
53 0 5 -6 9 -14 9 -7 0 -21 10 -31 23 -9 13 -37 34 -61 48 -24 13 -44 27 -44
31 0 11 65 1 98 -16 17 -9 39 -17 49 -19 10 -2 33 -11 50 -20 72 -38 81 -39
100 -7 9 17 21 30 26 30 12 0 -3 -44 -19 -53 -28 -16 -12 -27 39 -27 48 0 55
3 65 25 10 21 9 25 -3 25 -18 0 -20 16 -2 23 16 6 98 -1 106 -9 3 -3 -5 -14
-19 -24 -17 -14 -20 -20 -10 -21 10 0 11 -2 2 -6 -19 -7 -4 -23 16 -16 13 5
14 3 5 -7 -15 -16 2 -65 30 -85 12 -8 17 -15 12 -15 -6 -1 5 -7 24 -15 38 -17
53 -19 31 -5 -13 9 -13 10 0 10 13 0 13 1 0 11 -12 8 -9 9 12 5 17 -4 32 -1
42 9 12 13 36 21 69 24 10 1 5 24 -8 34 -6 5 6 6 25 4 l35 -6 -30 14 c-29 13
-29 13 -6 16 16 3 25 12 27 27 3 18 -1 22 -22 22 -22 0 -25 2 -14 15 10 12 10
15 -4 15 -22 0 -20 13 4 28 24 14 26 32 5 32 -19 0 -19 14 0 30 9 7 13 15 10
18 -3 3 0 11 6 19 9 10 8 13 0 13 -12 0 -6 39 8 50 3 3 8 14 9 25 2 11 9 27
16 35 12 15 48 102 61 147 3 12 1 24 -5 28 -18 11 -11 25 13 25 13 0 27 -3 30
-7z m-1943 -39 c0 -4 -10 -22 -21 -41 -16 -25 -24 -31 -30 -22 -4 8 0 24 12
41 19 26 39 37 39 22z m770 -64 c0 -5 -4 -10 -10 -10 -5 0 -10 5 -10 10 0 6 5
10 10 10 6 0 10 -4 10 -10z m-440 -61 c0 -6 -11 3 -25 19 -14 17 -25 34 -25
38 1 12 50 -45 50 -57z m-210 33 c3 -4 11 -7 19 -7 8 0 15 -6 17 -13 1 -7 0
-8 -3 -2 -2 5 -9 7 -15 4 -12 -8 -96 15 -105 29 -7 11 78 1 87 -11z m126 -24
c13 -13 24 -27 24 -32 0 -6 -5 -5 -12 2 -15 15 -31 16 -22 0 4 -7 3 -8 -5 -4
-6 4 -9 11 -6 16 3 5 1 11 -5 15 -11 7 -14 25 -4 25 3 0 17 -10 30 -22z m278
-20 c-3 -18 -15 -41 -27 -51 -20 -18 -22 -18 -34 -1 -15 21 -17 54 -3 54 6 0
10 7 10 15 0 10 10 15 29 15 27 0 29 -2 25 -32z m-580 6 c4 -10 1 -14 -6 -12
-15 5 -23 28 -10 28 5 0 13 -7 16 -16z m961 -4 c6 -9 -30 -21 -130 -40 -33 -7
-65 -17 -72 -22 -7 -5 -16 -7 -22 -4 -5 3 -11 2 -13 -4 -1 -5 -12 -11 -23 -13
-50 -9 -75 -20 -75 -32 0 -14 53 -12 125 6 22 6 51 11 65 11 14 1 33 7 44 14
23 16 46 8 46 -16 0 -10 8 -21 18 -23 9 -3 3 -5 -15 -6 -17 0 -33 5 -36 12 -4
10 -7 10 -18 0 -7 -7 -25 -13 -39 -13 -15 0 -51 -7 -81 -16 -29 -9 -65 -18
-79 -21 -13 -2 -30 -9 -37 -14 -8 -7 -19 -5 -37 6 -36 24 -66 12 -66 -26 0
-17 4 -28 9 -24 6 3 14 -3 20 -12 8 -13 10 -14 11 -3 0 11 3 11 12 2 17 -17
53 -15 68 3 7 8 21 15 31 15 11 0 19 5 19 10 0 6 13 10 29 10 16 0 42 5 58 11
37 15 84 13 94 -3 5 -7 9 -8 9 -2 0 6 7 11 15 11 15 0 19 -15 10 -39 -4 -9
-25 -13 -75 -12 -39 0 -70 -3 -70 -7 0 -4 -15 -17 -32 -28 -18 -11 -46 -32
-62 -46 -16 -14 -33 -25 -38 -25 -5 0 -13 -10 -18 -22 l-9 -23 0 23 c-1 12 6
25 14 28 8 4 15 15 15 26 0 10 4 17 10 13 5 -3 19 4 31 16 20 20 20 21 3 14
-10 -4 -37 -11 -59 -15 -68 -14 -126 -36 -118 -45 4 -4 0 -5 -9 -2 -12 4 -15
2 -11 -9 3 -8 -1 -14 -8 -15 -8 0 -26 -3 -42 -5 -32 -6 -47 17 -26 42 10 13
10 17 -2 26 -11 7 -11 11 -1 15 6 2 12 11 12 19 0 8 3 13 8 13 21 -4 32 3 32
20 0 10 11 26 24 37 14 10 23 21 20 26 -3 4 2 8 11 8 9 0 13 5 10 10 -3 6 1
13 10 16 9 4 13 13 10 24 -5 15 2 19 40 22 26 2 45 -1 45 -7 0 -5 7 -2 14 7 7
10 16 15 19 12 3 -3 16 2 30 11 14 8 47 18 73 21 27 3 60 11 74 18 14 6 43 13
65 14 21 2 41 5 44 7 7 8 19 6 26 -5z m-495 -91 c0 -4 3 -14 6 -22 3 -8 -1
-17 -8 -19 -9 -4 -13 4 -14 22 -1 15 -11 38 -23 51 -11 12 -21 27 -21 32 0 4
14 -7 30 -25 17 -18 30 -36 30 -39z m-176 35 c7 -19 2 -18 -19 6 -16 17 -16
20 -3 15 9 -4 19 -13 22 -21z m70 -43 c-7 -8 -42 30 -47 51 -4 16 1 12 23 -13
15 -19 26 -36 24 -38z m656 55 c0 -3 -4 -8 -10 -11 -5 -3 -10 -1 -10 4 0 6 5
11 10 11 6 0 10 -2 10 -4z m191 -7 c19 -7 42 -18 51 -26 9 -8 21 -12 27 -9 5
4 12 2 16 -4 4 -6 10 -8 15 -5 5 3 11 -4 15 -14 4 -12 12 -18 20 -15 8 3 21
-1 30 -10 9 -8 22 -13 30 -9 13 4 14 1 6 -21 -7 -16 -7 -27 0 -31 5 -4 7 -11
3 -16 -3 -6 -13 -1 -23 10 -10 11 -21 18 -25 14 -3 -3 -6 0 -6 8 0 11 -2 11
-8 1 -6 -9 -14 -7 -30 8 -12 12 -26 19 -31 15 -5 -3 -11 -2 -13 2 -1 5 -34 24
-73 43 -38 19 -71 38 -73 42 -2 5 -10 8 -17 8 -8 0 -17 5 -20 10 -9 14 64 13
106 -1z m-827 -15 c3 -8 2 -12 -4 -9 -6 3 -10 10 -10 16 0 14 7 11 14 -7z
m1088 3 c22 -11 24 -16 15 -37 -8 -21 -11 -22 -14 -7 -3 9 -9 15 -14 12 -5 -4
-9 -2 -9 4 0 5 -3 16 -6 25 -7 19 -4 20 28 3z m-432 -11 c0 -3 -4 -8 -10 -11
-5 -3 -10 -1 -10 4 0 6 5 11 10 11 6 0 10 -2 10 -4z m-1347 -44 c0 -18 -4 -36
-7 -39 -10 -10 -54 7 -60 23 -9 23 23 56 48 52 17 -2 21 -10 19 -36z m1377 18
c0 -5 -4 -10 -10 -10 -5 0 -10 5 -10 10 0 6 5 10 10 10 6 0 10 -4 10 -10z
m-880 -30 c11 -11 20 -16 20 -10 0 5 7 7 15 4 17 -7 10 -24 -9 -24 -7 0 -25
11 -40 25 -15 14 -22 25 -17 25 6 0 20 -9 31 -20z m1320 8 c0 -7 -5 -20 -10
-28 -8 -12 -10 -9 -10 13 0 15 5 27 10 27 6 0 10 -6 10 -12z m-424 -13 c-7
-19 -1 -19 18 0 13 13 20 13 63 -7 26 -11 53 -22 58 -24 6 -1 28 -10 50 -20
22 -10 51 -19 65 -21 14 -2 31 -11 38 -20 10 -14 12 -14 13 -2 0 9 2 10 5 2 3
-7 12 -9 20 -6 14 5 20 -17 8 -29 -11 -12 -80 12 -201 69 -29 14 -57 22 -62
18 -6 -3 -11 0 -11 7 0 9 -3 9 -10 -2 -7 -11 -10 -11 -10 -2 0 7 -5 10 -10 7
-18 -11 -50 6 -50 26 0 10 5 19 11 19 6 0 9 -7 5 -15z m391 -47 c-3 -8 -6 -5
-6 6 -1 11 2 17 5 13 3 -3 4 -12 1 -19z m-1234 5 c-7 -2 -21 -2 -30 0 -10 3
-4 5 12 5 17 0 24 -2 18 -5z m867 -52 c0 -6 -4 -13 -10 -16 -5 -3 -10 1 -10 9
0 9 5 16 10 16 6 0 10 -4 10 -9z m-1092 -33 c17 -17 15 -39 -3 -32 -8 4 -15 1
-15 -5 0 -6 6 -11 13 -11 18 0 19 -38 0 -66 -21 -33 -43 -31 -43 5 0 18 6 31
17 35 11 5 13 10 7 14 -6 4 -14 22 -17 40 -5 26 -3 32 11 32 10 0 23 -5 30
-12z m848 -34 c7 3 15 2 18 -2 8 -13 -8 -29 -38 -39 -30 -9 -50 -36 -25 -32
33 4 57 -2 62 -16 4 -8 1 -17 -5 -21 -7 -5 -8 -2 -3 6 6 10 0 12 -24 8 -18 -3
-34 -1 -37 4 -3 4 -10 8 -15 8 -6 0 -8 -4 -5 -8 2 -4 -24 -16 -59 -26 -78 -22
-169 -95 -146 -118 11 -10 14 -11 18 0 4 10 8 10 19 1 10 -8 22 -8 45 0 18 6
51 11 74 11 47 0 98 22 118 51 11 15 16 16 29 6 13 -9 14 -18 6 -37 -9 -25
-10 -25 -21 -4 -12 19 -13 19 -29 2 -18 -18 -17 -20 12 -22 8 -1 18 -15 21
-31 4 -17 7 -23 8 -15 1 13 3 13 10 0 13 -19 6 -27 -29 -32 -34 -5 -36 -3 -15
18 17 18 20 34 5 34 -5 0 -10 -5 -10 -11 0 -7 -10 -9 -25 -7 -14 3 -25 1 -25
-6 0 -6 -4 -5 -9 2 -7 11 -13 9 -30 -9 -11 -12 -21 -17 -21 -11 0 14 -29 16
-49 3 -12 -8 -12 -14 -4 -33 7 -13 12 -17 12 -10 2 25 20 11 31 -23 9 -27 15
-33 25 -25 7 5 11 22 9 36 -1 14 0 23 3 20 4 -3 12 -1 20 5 10 9 13 8 13 -5 0
-9 -8 -16 -17 -16 -14 0 -15 -2 -4 -9 15 -9 8 -43 -13 -63 -7 -7 -17 -54 -22
-103 -8 -82 -11 -90 -31 -93 -28 -4 -62 30 -70 68 -7 37 -23 39 -23 4 0 -15
-8 -33 -17 -41 -10 -8 -12 -12 -5 -8 6 3 12 3 12 -1 0 -13 -33 -44 -47 -44 -7
0 -24 -7 -36 -15 -13 -8 -56 -17 -97 -20 -41 -3 -69 -2 -62 1 10 5 9 9 -4 18
-15 11 -15 20 5 116 11 57 24 106 29 109 5 3 15 30 22 59 8 28 19 52 26 52 10
0 22 25 20 41 -1 3 11 17 27 31 28 27 36 62 15 72 -7 3 -1 4 14 1 19 -4 31 0
40 13 17 25 51 42 93 47 39 5 72 21 96 48 9 9 20 17 25 17 5 0 23 15 39 33 19
20 31 27 33 19 2 -8 10 -11 18 -8z m296 -49 c70 -68 131 -105 175 -105 15 0
37 -7 47 -15 11 -8 28 -15 38 -15 10 0 18 -7 18 -15 0 -8 7 -15 15 -15 8 0 15
-7 15 -15 0 -8 9 -15 20 -15 11 0 20 -7 20 -15 0 -8 5 -15 11 -15 6 0 8 -7 5
-16 -5 -12 -2 -15 13 -11 17 4 19 0 14 -27 -7 -45 -4 -100 6 -146 5 -24 5 -42
0 -46 -5 -3 -8 -49 -7 -103 2 -80 -1 -101 -14 -115 -9 -9 -21 -16 -26 -16 -6
0 -12 -5 -14 -11 -2 -6 -14 -1 -27 10 -36 32 -191 64 -191 40 0 -6 7 -9 15 -5
8 3 15 1 15 -4 0 -5 -9 -11 -19 -15 -11 -3 -41 -42 -66 -85 -26 -44 -51 -80
-55 -80 -24 0 -18 70 13 147 18 46 19 56 7 77 -9 17 -11 45 -7 88 5 60 -5 98
-27 98 -5 0 -17 10 -28 23 l-20 22 7 -25 c4 -14 8 -32 9 -40 1 -8 8 -25 14
-37 16 -28 15 -33 -3 -33 -8 0 -15 -6 -15 -12 0 -7 -7 -2 -16 10 -8 12 -12 27
-9 32 3 6 1 10 -5 10 -7 0 -10 6 -7 14 3 8 2 16 -4 18 -5 2 -10 21 -12 44 -2
33 -5 40 -19 36 -14 -3 -18 2 -17 19 0 22 1 23 9 4 7 -15 9 -16 9 -4 1 16 37
19 59 5 12 -7 22 16 22 49 0 25 -27 40 -65 37 -11 -1 -14 1 -7 4 6 3 12 12 12
20 0 19 3 18 53 -16 49 -33 58 -53 50 -106 -4 -22 -2 -34 6 -34 6 0 11 11 11
24 0 14 4 27 9 30 18 12 19 60 1 93 -19 35 -21 36 -57 22 -14 -5 -23 -5 -23 1
0 4 -8 11 -17 13 -10 3 -5 5 11 4 18 -1 30 4 33 13 4 13 3 13 -6 0 -9 -12 -11
-10 -11 13 0 15 -4 27 -10 27 -5 0 -10 4 -10 10 0 6 10 5 25 -2 14 -6 25 -16
25 -22 0 -6 30 -19 68 -28 37 -9 77 -19 89 -23 33 -11 40 18 13 56 -40 56
-210 152 -210 118 0 -5 5 -9 10 -9 6 0 10 -7 10 -16 0 -24 -35 -12 -38 13 -2
13 -15 32 -29 43 -24 19 -25 23 -13 45 7 14 10 28 5 32 -4 5 -10 2 -12 -5 -3
-6 -9 -9 -14 -6 -15 9 21 32 41 27 10 -3 47 -33 82 -68z m-982 40 c0 -10 -41
-11 -49 -1 -8 10 -3 11 19 8 17 -2 30 -5 30 -7z m78 8 c-10 -2 -28 -2 -40 0
-13 2 -5 4 17 4 22 1 32 -1 23 -4z m149 -91 c-9 -2 -17 -7 -17 -12 0 -5 -9
-12 -20 -15 -11 -3 -20 -13 -20 -21 0 -12 -3 -12 -20 -2 -24 16 -27 43 -4 34
15 -6 15 -4 3 10 -12 15 -12 16 8 10 13 -4 24 -2 29 5 4 8 3 9 -4 5 -7 -4 -12
-2 -12 3 0 6 5 11 11 11 5 0 7 5 3 12 -4 7 8 1 27 -12 26 -19 30 -25 16 -28z
m520 17 c2 -16 -1 -19 -9 -11 -5 5 -7 15 -4 21 10 15 12 14 13 -10z m1547 -14
c-7 -16 -20 -20 -27 -7 -2 4 -2 1 -1 -5 5 -18 -15 -16 -22 2 -4 8 -1 22 6 30
16 19 52 2 44 -20z m6 -35 c0 -5 -7 -10 -16 -10 -8 0 -12 5 -9 10 3 6 10 10
16 10 5 0 9 -4 9 -10z m-2002 -37 c-10 -2 -28 -2 -40 0 -13 2 -5 4 17 4 22 1
32 -1 23 -4z m967 -3 c3 -5 -1 -10 -9 -10 -9 0 -16 5 -16 10 0 6 4 10 9 10 6
0 13 -4 16 -10z m539 -51 c-3 -5 0 -9 7 -9 7 0 9 -3 6 -6 -7 -8 -37 14 -37 27
0 5 7 6 15 3 8 -4 12 -10 9 -15z m-1154 -93 c0 -3 -4 -8 -10 -11 -5 -3 -10 -1
-10 4 0 6 5 11 10 11 6 0 10 -2 10 -4z m110 -27 c8 -15 8 -24 0 -34 -6 -8 -13
-26 -15 -40 -1 -15 -9 -33 -17 -41 -23 -23 -16 25 10 66 14 22 18 38 12 44
-10 10 -13 26 -5 26 2 0 9 -9 15 -21z m1445 1 c-27 -12 -43 -12 -25 0 8 5 22
9 30 9 10 0 8 -3 -5 -9z m-1475 -12 c0 -4 -7 -8 -15 -8 -8 0 -15 4 -15 8 0 5
7 9 15 9 8 0 15 -4 15 -9z m-65 -87 c0 -44 -3 -83 -8 -87 -4 -4 -8 -1 -9 7 0
8 -2 21 -2 29 -1 8 -8 14 -16 12 -12 -3 -13 -1 -2 9 6 7 12 20 12 29 -1 11 -6
9 -20 -9 -17 -19 -21 -21 -26 -7 -3 8 1 23 10 31 9 9 16 22 16 29 0 7 10 18
23 24 12 6 22 11 23 11 0 1 0 -35 -1 -78z m1208 45 c4 -10 1 -13 -9 -9 -7 3
-14 9 -14 14 0 14 17 10 23 -5z m-1801 -43 c-6 -2 -9 -10 -5 -16 4 -7 0 -8
-11 -4 -10 4 -22 7 -27 7 -5 0 -9 3 -9 8 0 4 15 8 33 9 17 0 26 -1 19 -4z
m-62 -29 c0 -8 -4 -12 -10 -9 -5 3 -10 13 -10 21 0 8 5 12 10 9 6 -3 10 -13
10 -21z m1895 -12 c-6 -7 -45 9 -45 18 0 4 11 3 24 -3 14 -7 23 -13 21 -15z
m-1847 9 c11 -7 10 -10 -3 -15 -20 -7 -38 1 -30 15 7 11 16 11 33 0z m2102 -1
c0 -5 -8 -10 -17 -10 -15 0 -16 2 -3 10 19 12 20 12 20 0z m-187 -40 c4 -3 -8
-7 -28 -7 -23 0 -35 5 -35 14 0 10 8 12 28 7 15 -4 31 -10 35 -14z m-1902 -13
c-1 -4 -1 -11 -1 -17 0 -18 -40 -11 -41 8 0 10 -3 12 -6 5 -2 -7 -12 -13 -20
-13 -12 0 -11 5 6 19 21 19 64 17 62 -2z m789 7 c0 -8 -19 -13 -24 -6 -3 5 1
9 9 9 8 0 15 -2 15 -3z m1020 -37 c0 -5 -4 -5 -10 -2 -5 3 -10 14 -10 23 0 15
2 15 10 2 5 -8 10 -19 10 -23z m-1790 -17 c0 -6 -12 -15 -26 -20 -32 -13 -37
-12 -29 0 3 6 -2 11 -12 11 -10 1 -4 5 12 9 44 11 55 11 55 0z m855 -80 c0
-16 -1 -30 -3 -30 -6 0 -19 45 -15 53 9 16 18 5 18 -23z m1070 20 c3 -5 1 -10
-4 -10 -6 0 -11 5 -11 10 0 6 2 10 4 10 3 0 8 -4 11 -10z m50 -10 c3 -5 2 -10
-4 -10 -5 0 -13 5 -16 10 -3 6 -2 10 4 10 5 0 13 -4 16 -10z m-50 -21 c20 0
20 -1 0 -8 -19 -8 -45 7 -45 25 0 5 5 3 12 -4 7 -7 21 -12 33 -13z m-15 -49
c0 -5 -2 -10 -4 -10 -3 0 -8 5 -11 10 -3 6 -1 10 4 10 6 0 11 -4 11 -10z
m-1985 -85 c-7 -30 -9 -55 -4 -55 5 0 9 7 9 15 0 9 9 15 21 15 18 0 19 -3 9
-15 -13 -16 -24 -145 -12 -145 4 0 15 -13 25 -29 17 -29 17 -30 -4 -36 -14 -5
-18 -10 -10 -14 10 -7 25 -51 16 -51 -15 0 -33 14 -30 23 5 14 -13 38 -40 53
-12 7 -20 21 -19 38 0 14 -4 26 -9 26 -17 0 0 159 20 189 10 14 16 29 15 34
-1 4 4 7 12 7 11 0 11 -9 1 -55z m330 12 c4 5 5 2 1 -4 -5 -9 1 -13 19 -13 18
0 24 -4 19 -12 -6 -9 -3 -9 9 0 21 18 43 6 26 -14 -20 -24 -75 -17 -98 12 -12
15 -21 34 -21 42 0 13 3 13 18 -1 10 -10 22 -14 27 -10z m-68 -91 c49 -50 49
-55 0 -30 -57 29 -95 87 -81 124 4 10 10 5 20 -17 9 -17 36 -52 61 -77z m952
85 c20 -13 17 -62 -5 -78 -44 -32 -107 -22 -123 19 -14 38 6 51 40 26 26 -20
30 -20 46 -6 10 8 25 18 33 21 10 4 7 6 -7 6 -13 1 -23 6 -23 11 0 12 20 13
39 1z m114 -37 c20 -20 -71 -134 -107 -134 -9 0 -16 -4 -16 -9 0 -5 -14 -13
-32 -16 -18 -4 -40 -18 -51 -31 -33 -43 -66 -23 -53 31 6 22 11 25 49 24 23
-1 55 4 72 10 35 15 85 68 85 92 0 24 38 48 53 33z m-1443 -58 c0 -2 -9 -6
-20 -9 -11 -3 -18 -1 -14 4 5 9 34 13 34 5z m-44 -64 c-23 -23 -33 -6 -10 19
12 13 20 16 22 9 3 -7 -3 -19 -12 -28z m558 12 c19 -18 19 -24 6 -44 -9 -13
-15 -10 -38 16 -15 18 -34 34 -42 37 -8 3 2 6 22 6 21 1 43 -6 52 -15z m1621
-4 c3 -5 1 -10 -4 -10 -6 0 -11 5 -11 10 0 6 2 10 4 10 3 0 8 -4 11 -10z m125
0 c0 -5 -7 -7 -15 -4 -8 4 -15 8 -15 10 0 2 7 4 15 4 8 0 15 -4 15 -10z m-90
-25 c0 -8 -2 -15 -4 -15 -2 0 -6 7 -10 15 -3 8 -1 15 4 15 6 0 10 -7 10 -15z
m-1224 -55 c8 0 14 -9 13 -22 -1 -16 -3 -18 -6 -6 -6 22 -33 32 -33 12 0 -8 5
-12 10 -9 6 3 10 -1 10 -9 0 -9 5 -16 10 -16 6 0 10 -8 10 -17 -1 -16 -2 -16
-16 2 -8 11 -20 19 -25 18 -8 -3 -14 19 -10 40 1 4 -11 5 -26 2 -23 -4 -22 -3
5 7 17 6 33 16 33 22 1 6 3 3 6 -6 2 -10 11 -18 19 -18z m1225 10 c31 -26 15
-26 -18 0 -14 11 -21 20 -15 20 5 0 20 -9 33 -20z m-1271 -34 c0 -3 -4 -8 -10
-11 -5 -3 -10 -1 -10 4 0 6 5 11 10 11 6 0 10 -2 10 -4z m535 -16 c-3 -5 -14
-10 -23 -9 -14 0 -13 2 3 9 27 11 27 11 20 0z m-572 -15 c-3 -9 -8 -14 -10
-11 -3 3 -2 9 2 15 9 16 15 13 8 -4z m1307 5 c0 -5 -7 -10 -15 -10 -8 0 -15 5
-15 10 0 6 7 10 15 10 8 0 15 -4 15 -10z m-1260 -34 c0 -13 -7 -27 -16 -30
-14 -5 -15 -4 -5 8 6 8 11 18 10 22 -2 13 0 24 6 24 3 0 5 -11 5 -24z m1216
-13 c-6 -6 -46 20 -46 30 0 4 11 0 25 -9 14 -9 24 -19 21 -21z m-1255 -37 c13
-14 11 -23 -5 -23 -8 0 -12 6 -8 15 3 9 1 13 -4 9 -7 -4 -8 6 -5 26 5 29 6 30
9 7 2 -14 8 -29 13 -34z m63 38 c3 -8 2 -12 -4 -9 -6 3 -10 10 -10 16 0 14 7
11 14 -7z m-31 -49 c-3 -9 -8 -14 -10 -11 -3 3 -2 9 2 15 9 16 15 13 8 -4z
m-616 -31 c-3 -3 -12 -4 -19 -1 -8 3 -5 6 6 6 11 1 17 -2 13 -5z m-45 -81 c5
-21 -17 -69 -25 -56 -5 7 -3 51 2 71 3 10 19 -1 23 -15z m-215 -29 c-3 -3 -12
-4 -19 -1 -8 3 -5 6 6 6 11 1 17 -2 13 -5z m198 -89 c11 -9 2 -7 -20 6 -22 12
-44 26 -50 32 -16 15 48 -20 70 -38z m75 35 c0 -5 -9 -10 -21 -10 -11 0 -17 5
-14 10 3 6 13 10 21 10 8 0 14 -4 14 -10z m-253 -36 c-3 -3 -12 -4 -19 -1 -8
3 -5 6 6 6 11 1 17 -2 13 -5z m1959 -34 c0 -12 -4 -16 -9 -11 -5 5 -6 14 -3
20 10 15 12 14 12 -9z m-786 -90 c21 -11 33 -51 24 -85 -7 -28 -49 -44 -67
-26 -8 8 -7 11 4 11 9 0 21 11 27 25 9 19 8 27 -4 40 -9 8 -20 15 -25 15 -5 0
-9 7 -9 15 0 17 23 20 50 5z m-1324 -41 c4 -6 19 -9 38 -5 27 5 29 4 14 -8
-10 -7 -15 -16 -11 -19 3 -4 -6 -16 -21 -28 -27 -22 -27 -39 2 -38 14 0 13 2
-3 9 -13 6 -15 9 -5 9 8 0 21 -3 29 -8 11 -7 10 -11 -7 -22 -34 -21 -16 -39
36 -34 41 4 42 3 12 -3 -48 -11 -62 -21 -56 -39 3 -8 1 -23 -4 -34 -13 -23 -8
-24 33 -3 l32 16 -35 -31 c-38 -33 -63 -40 -54 -16 4 8 1 15 -5 15 -6 0 -11
-4 -11 -10 0 -5 -9 -10 -20 -10 -11 0 -20 -5 -20 -12 0 -9 -3 -9 -12 0 -7 7
-25 12 -40 12 -16 0 -31 7 -34 15 -4 8 -12 15 -20 15 -19 0 -18 7 5 32 11 11
17 26 14 34 -6 16 -23 19 -23 4 0 -5 -9 -10 -20 -10 -11 0 -20 5 -20 10 0 6
-7 10 -15 10 -13 0 -14 4 -5 21 14 26 4 62 -10 39 -6 -9 -10 -10 -10 -3 0 6 5
15 10 18 6 4 8 9 6 13 -2 4 2 16 10 26 11 16 16 17 29 6 12 -10 19 -9 39 3 25
17 48 8 59 -23 3 -9 6 -4 6 11 1 18 9 28 29 36 37 15 50 15 58 2z m319 -29 c3
-6 -1 -7 -9 -4 -18 7 -21 14 -7 14 6 0 13 -4 16 -10z m1085 -4 c0 -3 -4 -8
-10 -11 -5 -3 -10 -1 -10 4 0 6 5 11 10 11 6 0 10 -2 10 -4z m-1100 -20 c0 -3
-4 -8 -10 -11 -5 -3 -10 -1 -10 4 0 6 5 11 10 11 6 0 10 -2 10 -4z m608 -41
c-3 -3 -9 2 -12 12 -6 14 -5 15 5 6 7 -7 10 -15 7 -18z m-522 -22 c-3 -3 2
-11 11 -18 13 -9 13 -14 3 -20 -9 -5 -11 -4 -6 3 5 8 1 10 -9 5 -27 -10 4 -23
40 -17 23 4 27 3 15 -5 -8 -6 -24 -11 -35 -11 -17 0 -17 -2 -5 -10 13 -9 13
-10 0 -11 -8 -1 -19 -1 -24 0 -20 4 -66 -12 -87 -30 -12 -10 -17 -19 -11 -19
6 0 17 6 24 13 7 6 22 12 33 13 11 1 38 4 60 8 33 5 36 4 16 -4 -165 -72 -217
-98 -249 -125 -44 -37 -40 -23 6 20 33 32 34 36 12 29 -22 -6 -23 -5 -12 9 16
18 0 32 -25 22 -14 -5 -13 -2 2 15 19 21 19 21 -5 17 -14 -2 -20 -2 -15 0 6 2
16 12 23 23 11 18 10 19 -14 9 -15 -5 -29 -7 -32 -4 -7 6 -7 6 57 35 l55 25
-45 6 c-41 6 -40 6 20 7 50 2 62 5 58 16 -3 8 0 16 6 19 17 6 76 -4 83 -14 9
-15 37 -10 31 5 -8 21 5 29 16 11 5 -9 6 -19 3 -22z m1550 -104 c14 -28 24
-53 22 -55 -2 -2 -16 21 -31 51 -15 30 -25 55 -22 55 3 0 16 -23 31 -51z
m-1506 -24 c-7 -9 -10 -18 -7 -22 8 -7 -11 -33 -25 -33 -5 0 -6 5 -2 12 4 7 3
8 -4 4 -6 -4 -9 -12 -6 -20 3 -9 -5 -12 -28 -11 -37 2 -60 -4 -54 -14 3 -4 -4
-7 -15 -7 -19 0 -18 1 3 18 13 10 27 18 31 18 5 0 5 5 2 10 -4 6 -11 7 -17 4
-7 -5 -8 -2 -4 5 5 7 14 10 22 7 21 -8 74 5 71 17 -1 6 3 11 10 12 6 0 15 3
19 8 14 13 17 7 4 -8z m30 -29 c0 -2 -8 -10 -17 -17 -16 -13 -17 -12 -4 4 13
16 21 21 21 13z m8 -56 c-11 -18 -14 -18 -30 -3 -16 15 -18 14 -28 -8 l-10
-24 3 25 c2 24 11 28 47 19 8 -2 14 2 12 9 -1 8 2 11 8 7 6 -4 5 -13 -2 -25z
m1457 20 c3 -6 -1 -7 -9 -4 -18 7 -21 14 -7 14 6 0 13 -4 16 -10z m293 -19
c-11 -18 -47 -35 -55 -27 -3 3 57 45 65 46 1 0 -3 -9 -10 -19z m207 9 c-3 -5
-14 -10 -23 -9 -14 0 -13 2 3 9 27 11 27 11 20 0z m-445 -15 c14 -8 21 -14 15
-14 -5 0 -21 6 -35 14 -14 8 -20 14 -15 14 6 0 21 -6 35 -14z m360 11 c0 -2
-6 -9 -14 -15 -11 -9 -16 -9 -22 0 -4 8 -3 9 4 5 7 -4 12 -2 12 3 0 6 5 11 10
11 6 0 10 -2 10 -4z m-190 -40 c0 -2 -7 -7 -16 -10 -8 -3 -12 -2 -9 4 6 10 25
14 25 6z m-1900 -9 c0 -2 -10 -12 -22 -23 l-23 -19 19 23 c18 21 26 27 26 19z
m1047 -29 c-3 -8 -6 -5 -6 6 -1 11 2 17 5 13 3 -3 4 -12 1 -19z m312 -12 c-3
-3 -11 5 -18 17 -13 21 -12 21 5 5 10 -10 16 -20 13 -22z m-1629 -5 c0 -6 -4
-13 -10 -16 -5 -3 -10 1 -10 9 0 9 5 16 10 16 6 0 10 -4 10 -9z m1267 -23 c-3
-8 -6 -5 -6 6 -1 11 2 17 5 13 3 -3 4 -12 1 -19z m-82 -37 c-4 -14 2 -21 23
-30 15 -6 33 -20 39 -29 10 -17 7 -18 -32 -17 -33 1 -42 -2 -38 -12 3 -8 0
-11 -9 -8 -19 8 -42 -20 -34 -41 6 -14 4 -15 -10 -4 -13 12 -17 11 -25 -1 -6
-10 -9 -10 -9 -1 0 18 -18 15 -23 -5 -3 -12 -5 -8 -6 9 -2 56 -30 83 -32 31
l-1 -28 -8 25 c-7 21 -8 22 -9 5 -1 -17 -3 -17 -11 -5 -15 23 -12 60 4 60 8 0
18 -5 22 -11 11 -18 24 12 13 32 -12 24 -11 35 2 22 13 -13 40 -6 51 12 4 6
28 13 53 13 41 2 46 0 40 -17z m302 -53 c-3 -8 -6 -5 -6 6 -1 11 2 17 5 13 3
-3 4 -12 1 -19z m10 -60 c-3 -8 -6 -5 -6 6 -1 11 2 17 5 13 3 -3 4 -12 1 -19z
m-450 -30 c-3 -8 -6 -5 -6 6 -1 11 2 17 5 13 3 -3 4 -12 1 -19z m-657 -7 c14
-28 13 -31 -14 -31 -38 0 -42 45 -4 49 4 1 12 -8 18 -18z m627 -23 c-3 -8 -6
-5 -6 6 -1 11 2 17 5 13 3 -3 4 -12 1 -19z m-647 -98 c8 -5 11 -12 8 -16 -10
-9 -38 3 -38 16 0 12 10 13 30 0z m993 -7 c4 -3 2 -12 -4 -20 -6 -7 -8 -13 -3
-13 5 0 10 -14 11 -31 l2 -31 -19 22 c-16 19 -20 20 -20 7 0 -12 -9 -17 -29
-17 -16 0 -34 -7 -41 -16 -20 -23 -84 -15 -88 12 -4 29 24 49 97 67 35 9 66
19 69 22 7 7 17 6 25 -2z m-304 -95 c0 -27 -2 -30 -9 -13 -7 18 -8 19 -15 3
-4 -10 -11 -15 -16 -12 -5 3 -9 -2 -9 -10 0 -9 -4 -16 -10 -16 -5 0 -10 -11
-10 -25 0 -14 -4 -25 -10 -25 -5 0 -7 7 -3 16 5 13 2 15 -18 9 -23 -7 -23 -7
-6 12 18 20 24 48 8 38 -15 -9 -22 12 -8 23 12 10 71 29 95 31 7 1 12 -11 11
-31z m-14 -57 c-3 -6 -11 -11 -16 -11 -5 0 -4 6 3 14 14 16 24 13 13 -3z m-79
-88 c-10 -10 -19 5 -10 18 6 11 8 11 12 0 2 -7 1 -15 -2 -18z"/>
<path d="M422 2830 c0 -14 2 -19 5 -12 2 6 2 18 0 25 -3 6 -5 1 -5 -13z"/>
<path d="M2444 2652 c-6 -4 -14 -17 -18 -28 -6 -19 -2 -22 29 -26 19 -2 42 0
50 5 13 7 11 12 -11 32 -29 27 -33 28 -50 17z"/>
<path d="M2275 2389 c-5 -5 -19 -16 -30 -23 -16 -12 -17 -16 -6 -30 19 -23 39
-20 71 11 22 20 26 30 18 40 -12 15 -39 16 -53 2z"/>
<path d="M2327 2043 c-14 -4 -16 -8 -6 -19 6 -8 8 -14 5 -14 -4 0 -1 -10 6
-22 6 -13 13 -54 15 -93 3 -73 7 -135 18 -245 4 -36 8 -103 9 -150 2 -77 4
-85 22 -85 21 -1 44 17 44 34 0 6 7 11 16 11 8 0 12 5 9 10 -3 6 1 10 9 10 12
0 14 5 6 26 -12 31 -12 37 -2 30 12 -7 3 54 -14 92 -8 18 -12 37 -9 43 4 5 2
16 -5 24 -8 9 -8 15 0 20 8 5 8 10 0 20 -6 7 -10 17 -8 21 1 5 -3 19 -10 32
-7 12 -12 28 -10 35 1 6 -1 22 -6 34 -4 12 -3 31 3 41 6 11 7 22 3 26 -3 4 -7
31 -7 59 0 45 -3 52 -20 53 -11 1 -27 4 -35 7 -8 2 -23 3 -33 0z"/>
<path d="M2260 1911 c0 -11 -4 -23 -10 -26 -5 -3 -10 -19 -10 -36 0 -16 -4
-29 -10 -29 -13 0 -13 -86 1 -111 10 -19 32 -133 30 -154 0 -5 -2 -33 -4 -60
-2 -28 -10 -61 -18 -75 -22 -37 -78 -86 -134 -117 -71 -38 -82 -50 -62 -70 14
-14 18 -13 47 16 21 20 38 30 50 26 19 -6 65 35 75 66 4 10 13 19 21 19 13 0
13 -2 -1 -17 -22 -22 -38 -64 -27 -75 4 -4 27 1 50 12 22 11 45 20 49 20 14 0
8 103 -7 130 -8 14 -14 27 -13 30 2 7 13 215 17 313 2 43 7 81 10 84 3 3 0 13
-7 21 -9 12 -9 16 0 19 20 7 2 33 -23 33 -17 0 -24 -6 -24 -19z m2 -518 c-6
-2 -10 -9 -6 -14 3 -5 -2 -9 -10 -9 -10 0 -13 6 -10 15 4 8 14 15 23 14 10 0
11 -2 3 -6z"/>
<path d="M2620 1800 c0 -5 5 -10 10 -10 6 0 10 5 10 10 0 6 -4 10 -10 10 -5 0
-10 -4 -10 -10z"/>
<path d="M1960 1374 c0 -12 43 -44 51 -38 14 9 10 31 -7 38 -20 8 -44 8 -44 0z"/>
<path d="M1953 1314 c-18 -8 -16 -17 7 -44 26 -30 52 -20 48 17 -3 28 -26 39
-55 27z"/>
<path d="M2390 1296 c0 -18 -15 -21 -25 -6 -8 13 -85 -31 -96 -55 -2 -5 -7 -9
-11 -7 -5 1 -8 -6 -8 -16 0 -10 -13 -22 -30 -30 -16 -6 -43 -18 -60 -24 -16
-7 -30 -17 -30 -21 0 -5 4 -6 9 -2 5 3 67 7 138 9 70 2 136 6 145 11 14 5 17
15 12 48 -3 23 -9 46 -14 51 -6 6 -10 18 -10 27 0 10 -4 21 -10 24 -5 3 -10
-1 -10 -9z m-145 -136 c-11 -5 -27 -9 -35 -9 -13 -1 -13 0 0 9 8 5 24 9 35 9
l20 0 -20 -9z"/>
<path d="M2528 1209 c-8 -20 6 -46 16 -30 4 6 12 9 17 6 5 -3 6 1 2 10 -4 12
-8 13 -13 4 -6 -8 -9 -6 -12 7 -3 16 -5 17 -10 3z"/>
<path d="M2140 1178 c0 -6 -3 -9 -6 -5 -4 3 -20 -1 -36 -9 -17 -9 -27 -11 -24
-5 4 6 1 11 -7 11 -21 0 -29 -27 -10 -34 8 -3 30 1 48 10 38 18 65 44 46 44
-6 0 -11 -5 -11 -12z"/>
<path d="M1970 1166 c0 -2 6 -22 14 -44 14 -38 13 -40 -7 -51 -12 -6 -15 -10
-7 -10 38 3 44 -1 24 -16 -19 -14 -18 -14 3 -15 26 0 93 30 93 42 0 4 10 13
23 19 21 12 21 11 7 -6 -14 -17 -14 -18 10 -5 14 8 50 22 80 32 l55 19 -54 -6
c-30 -4 -59 -9 -64 -12 -5 -3 -26 -7 -46 -9 -20 -2 -47 -5 -61 -6 -20 -2 -26
2 -28 22 -4 27 -19 50 -33 50 -5 0 -9 -2 -9 -4z"/>
<path d="M2034 1115 c-10 -8 -14 -14 -9 -15 15 0 40 18 34 24 -3 3 -14 -1 -25
-9z"/>
<path d="M2465 1051 c-3 -6 0 -11 7 -11 10 0 10 -2 -1 -9 -9 -6 -10 -11 -2
-15 6 -4 11 -2 11 4 0 6 5 8 13 4 7 -5 7 -1 -3 12 -8 10 -15 20 -16 22 -1 2
-5 -1 -9 -7z"/>
<path d="M1920 1000 c0 -5 5 -10 11 -10 5 0 7 5 4 10 -3 6 -8 10 -11 10 -2 0
-4 -4 -4 -10z"/>
<path d="M1984 995 c-16 -12 -16 -14 -3 -15 9 0 22 7 29 15 16 19 0 19 -26 0z"/>
<path d="M2210 986 c0 -2 7 -7 16 -10 8 -3 12 -2 9 4 -6 10 -25 14 -25 6z"/>
<path d="M1968 952 c-10 -2 -18 -8 -18 -14 0 -5 7 -8 15 -4 8 3 15 1 15 -4 0
-6 -7 -10 -15 -10 -8 0 -15 -3 -16 -7 0 -5 -2 -16 -4 -25 -4 -20 12 -23 35 -8
12 8 10 10 -10 11 -21 1 -22 2 -5 6 11 3 23 10 27 16 4 7 16 6 37 -3 18 -7 34
-10 37 -7 3 3 -12 11 -35 18 -22 6 -41 17 -43 23 -2 6 -11 10 -20 8z"/>
<path d="M2280 935 c0 -8 4 -15 10 -15 5 0 7 7 4 15 -4 8 -8 15 -10 15 -2 0
-4 -7 -4 -15z"/>
<path d="M2135 875 c34 -27 41 -29 50 -15 3 6 -2 13 -12 16 -10 3 -26 10 -35
15 -32 17 -33 9 -3 -16z"/>
<path d="M2040 864 c0 -12 -3 -14 -12 -6 -21 16 -89 0 -106 -25 -14 -23 -14
-23 44 -23 54 1 57 2 40 15 -11 8 -14 15 -7 15 7 0 9 5 5 12 -5 7 -3 8 5 4 7
-5 10 -11 7 -14 -13 -12 32 -29 82 -31 36 -1 52 3 52 11 1 8 7 5 15 -6 8 -11
15 -15 15 -9 0 20 -25 34 -39 20 -10 -9 -11 -9 -6 4 8 22 -30 49 -67 49 -19 0
-28 -5 -28 -16z m25 -34 c3 -5 2 -10 -4 -10 -5 0 -13 5 -16 10 -3 6 -2 10 4
10 5 0 13 -4 16 -10z"/>
<path d="M1890 860 c0 -5 7 -10 16 -10 8 0 12 5 9 10 -3 6 -10 10 -16 10 -5 0
-9 -4 -9 -10z"/>
<path d="M1610 820 c0 -5 5 -10 11 -10 5 0 7 5 4 10 -3 6 -8 10 -11 10 -2 0
-4 -4 -4 -10z"/>
<path d="M2045 670 c10 -11 20 -20 23 -20 3 0 -3 9 -13 20 -10 11 -20 20 -23
20 -3 0 3 -9 13 -20z"/>
<path d="M990 2591 c0 -5 11 -11 25 -13 20 -4 23 -3 14 8 -13 16 -39 19 -39 5z"/>
<path d="M1385 2380 c3 -5 8 -10 11 -10 2 0 4 5 4 10 0 6 -5 10 -11 10 -5 0
-7 -4 -4 -10z"/>
<path d="M1155 2249 c-5 -6 -29 -27 -52 -47 -42 -37 -69 -90 -42 -79 8 2 13
10 12 16 -2 6 3 11 10 11 6 1 28 14 47 30 19 17 40 30 47 30 14 0 16 10 7 34
-7 18 -15 19 -29 5z"/>
<path d="M959 2070 c-13 -16 -29 -30 -36 -30 -18 0 -35 -38 -28 -60 6 -18 12
-19 63 -14 31 4 61 10 67 15 5 5 19 9 32 9 31 0 29 13 -6 46 -17 15 -27 32
-24 37 6 10 -15 27 -33 27 -7 0 -22 -13 -35 -30z"/>
<path d="M1595 2520 c-3 -5 -1 -10 4 -10 6 0 11 5 11 10 0 6 -2 10 -4 10 -3 0
-8 -4 -11 -10z"/>
<path d="M1747 2264 c-3 -4 0 -19 8 -35 17 -32 19 -59 5 -59 -5 0 -10 -9 -10
-20 0 -22 15 -27 26 -8 5 7 3 8 -6 3 -8 -5 -11 -3 -8 6 3 8 14 13 24 11 10 -2
25 -4 32 -4 6 -1 12 -5 12 -10 0 -5 5 -6 10 -3 6 3 10 -1 10 -10 0 -9 4 -14 9
-11 5 4 12 0 14 -6 3 -8 6 -6 6 5 1 9 -3 17 -8 17 -5 0 -13 9 -16 20 -4 11
-10 18 -15 15 -5 -3 -11 3 -14 13 -8 24 -70 84 -79 76z"/>
<path d="M1922 2033 c-32 -34 -32 -97 0 -77 8 5 9 2 5 -9 -9 -23 21 -37 63
-28 25 5 36 13 38 27 5 32 -16 74 -36 74 -9 0 -26 6 -37 14 -17 12 -22 12 -33
-1z"/>
<path d="M680 1649 c0 -5 5 -7 10 -4 6 3 10 8 10 11 0 2 -4 4 -10 4 -5 0 -10
-5 -10 -11z"/>
<path d="M680 1580 c0 -5 5 -10 11 -10 5 0 7 5 4 10 -3 6 -8 10 -11 10 -2 0
-4 -4 -4 -10z"/>
<path d="M685 1550 c-3 -5 -1 -10 4 -10 6 0 11 5 11 10 0 6 -2 10 -4 10 -3 0
-8 -4 -11 -10z"/>
<path d="M340 960 c0 -5 6 -10 14 -10 8 0 18 5 21 10 3 6 -3 10 -14 10 -12 0
-21 -4 -21 -10z"/>
<path d="M725 850 c-19 -8 -19 -9 3 -9 12 -1 22 4 22 9 0 6 -1 10 -2 9 -2 0
-12 -4 -23 -9z"/>
<path d="M1660 180 c0 -5 5 -10 11 -10 5 0 7 5 4 10 -3 6 -8 10 -11 10 -2 0
-4 -4 -4 -10z"/>
<path d="M1696 173 c-6 -14 -5 -15 5 -6 7 7 10 15 7 18 -3 3 -9 -2 -12 -12z"/>
<path d="M3172 2320 c0 -14 2 -19 5 -12 2 6 2 18 0 25 -3 6 -5 1 -5 -13z"/>
<path d="M596 1136 c3 -9 17 -16 33 -16 20 0 23 -2 11 -10 -18 -11 -11 -14 85
-29 39 -7 83 -14 99 -18 25 -5 28 -3 23 11 -4 10 -3 15 3 11 6 -3 10 -2 10 3
0 6 -7 12 -15 16 -8 3 -15 1 -15 -4 0 -5 -21 3 -46 17 -59 33 -199 47 -188 19z"/>
<path d="M501 1123 c-8 -3 -30 -16 -49 -29 l-35 -24 29 1 c41 0 115 16 85 18
-18 1 -22 5 -18 21 3 11 4 20 4 19 -1 0 -8 -3 -16 -6z"/>
<path d="M738 1063 c7 -3 16 -2 19 1 4 3 -2 6 -13 5 -11 0 -14 -3 -6 -6z"/>
<path d="M780 1052 c24 -15 77 -25 65 -13 -6 6 -26 13 -45 16 -24 4 -30 3 -20
-3z"/>
<path d="M700 1025 l25 -14 -24 -1 c-13 0 -22 -2 -19 -5 3 -3 25 -3 49 1 l44
7 -35 13 c-48 17 -71 17 -40 -1z"/>
<path d="M3110 691 c-30 -16 -70 -32 -88 -36 -18 -3 -30 -10 -27 -15 5 -9 -49
-30 -74 -29 -12 0 -11 3 4 10 27 13 -33 4 -100 -15 -27 -8 -81 -22 -120 -32
-38 -9 -88 -26 -110 -36 -22 -10 -31 -15 -20 -12 11 4 54 8 97 8 42 1 80 5 85
9 4 5 -14 6 -42 2 -39 -5 -46 -4 -32 5 10 6 48 13 85 16 73 4 171 22 187 33 6
4 21 8 35 9 14 0 62 4 108 7 l82 7 0 49 c0 27 -3 49 -7 49 -5 -1 -33 -14 -63
-29z m-220 -91 c-8 -5 -24 -9 -35 -9 l-20 0 20 9 c11 5 27 9 35 9 13 1 13 0 0
-9z"/>
<path d="M3054 549 c-106 -10 -248 -50 -329 -92 -71 -37 -215 -139 -215 -153
0 -8 -4 -14 -8 -14 -5 0 -17 -8 -28 -17 -11 -10 -35 -27 -54 -37 -19 -11 -48
-33 -65 -48 -16 -15 -33 -28 -36 -28 -10 0 -104 -98 -107 -112 -2 -7 -10 -18
-18 -24 -7 -6 -14 -14 -14 -18 0 -3 67 -6 148 -6 115 0 153 3 168 15 10 8 29
15 41 15 12 0 25 4 28 10 3 5 20 10 36 10 16 0 41 7 54 16 13 8 41 16 62 17
31 1 37 -2 35 -16 -3 -16 2 -17 33 -11 37 7 37 7 19 -15 -10 -11 -30 -21 -44
-22 -14 0 -34 -4 -45 -9 -12 -5 78 -9 223 -9 l242 -1 0 225 0 226 -21 -12
c-12 -6 -35 -12 -52 -13 -17 -1 -33 -8 -35 -14 -2 -7 -10 -12 -18 -12 -9 0
-12 -5 -8 -12 4 -7 4 -10 -1 -6 -4 4 -22 -4 -40 -17 -17 -14 -37 -25 -43 -25
-7 0 -12 -4 -12 -10 0 -6 9 -6 26 0 14 6 53 12 87 14 34 3 72 8 85 12 16 5 22
2 22 -10 0 -9 -7 -16 -15 -16 -18 0 -20 -16 -2 -23 6 -3 -1 -6 -18 -6 -35 -1
-98 -22 -180 -61 -115 -54 -170 -78 -212 -91 -24 -6 -43 -15 -43 -20 0 -4 -7
-10 -15 -13 -30 -11 -11 28 23 50 23 15 30 24 22 29 -8 5 -3 15 16 30 16 13
29 31 29 41 0 10 11 24 23 30 17 8 20 13 10 17 -7 3 -3 6 9 6 15 1 27 12 39
37 12 26 19 32 25 22 6 -9 9 -10 9 -1 0 14 94 45 115 37 7 -3 18 4 25 15 8 16
20 21 53 21 24 0 55 6 70 13 23 10 27 18 27 55 0 48 12 45 -126 31z"/>
<path d="M2618 513 c7 -3 16 -2 19 1 4 3 -2 6 -13 5 -11 0 -14 -3 -6 -6z"/>
<path d="M1060 96 c0 -9 7 -12 20 -9 11 3 20 9 20 14 0 5 -9 9 -20 9 -11 0
-20 -6 -20 -14z"/>
<path d="M878 3 c7 -3 16 -2 19 1 4 3 -2 6 -13 5 -11 0 -14 -3 -6 -6z"/>
</g>
</svg>
